<svg xmlns="http://www.w3.org/2000/svg" version="1.1" xmlns:xlink="http://www.w3.org/1999/xlink" xmlns:svgjs="http://svgjs.dev/svgjs" width="308.7612359841165" height="304.915625" viewBox="0 0 2000 1500"><rect width="2000" height="1500" fill="#28353b"></rect><g transform="matrix(0.75,0,0,0.75,250.77413498720307,62.05748987854247)"><svg viewBox="0 0 269 247" data-background-color="#28353b" preserveAspectRatio="xMidYMid meet" height="1836" width="2000" xmlns="http://www.w3.org/2000/svg" xmlns:xlink="http://www.w3.org/1999/xlink"><g id="tight-bounds" transform="matrix(1,0,0,1,-0.13882820770507465,-0.09999999999999432)"><svg viewBox="0 0 269.27765641541015 247.2" height="247.2" width="269.27765641541015"><g><svg viewBox="0 0 395.52 363.09193009748986" height="247.2" width="269.27765641541015"><g transform="matrix(1,0,0,1,0,288.4715576278542)"><svg viewBox="0 0 395.52 74.62037246963563" height="74.62037246963563" width="395.52"><g id="textblocktransform"><svg viewBox="0 0 395.52 74.62037246963563" height="74.62037246963563" width="395.52" id="textblock"><g><svg viewBox="0 0 395.52 74.62037246963563" height="74.62037246963563" width="395.52"><g transform="matrix(1,0,0,1,0,0)"><svg width="395.52" viewBox="-4.849999904632568 -34.95000076293945 185.24000549316406 34.95000076293945" height="74.62037246963563" data-palette-color="url(#e0cdf43c-1582-4440-9b4b-8516a77c6de1)"></svg></g></svg></g></svg></g></svg></g><g transform="matrix(1,0,0,1,75.54432,0)"><svg viewBox="0 0 244.43135999999998 244.43135999999998" height="244.43135999999998" width="244.43135999999998"><g><svg viewBox="0 0 244.43135999999998 244.43135999999998" height="244.43135999999998" width="244.43135999999998"><g transform="matrix(1,0,0,1,64.60265593644992,64.60265593644992)"><svg viewBox="0 0 115.22604812710014 115.22604812710014" height="115.22604812710014" width="115.22604812710014"><g><svg xmlns="http://www.w3.org/2000/svg" xmlns:xlink="http://www.w3.org/1999/xlink" version="1.0" x="0" y="0" viewBox="1 1 48 48" enable-background="new 0 0 50 50" xml:space="preserve" height="115.22604812710014" width="115.22604812710014" class="icon-s-0" data-fill-palette-color="accent" id="s-0"></svg></g></svg></g><g></g></svg></g></svg></g><g></g></svg></g><defs></defs><mask id="3fc4424e-44aa-494d-8e79-54f48ece891e"><g id="SvgjsG1258"><svg viewBox="0 0 269.27765641541015 247.2" height="247.2" width="269.27765641541015"><g><svg viewBox="0 0 395.52 363.09193009748986" height="247.2" width="269.27765641541015"><g transform="matrix(1,0,0,1,0,288.4715576278542)"><svg viewBox="0 0 395.52 74.62037246963563" height="74.62037246963563" width="395.52"><g id="SvgjsG1257"><svg viewBox="0 0 395.52 74.62037246963563" height="74.62037246963563" width="395.52" id="SvgjsSvg1256"><g><svg viewBox="0 0 395.52 74.62037246963563" height="74.62037246963563" width="395.52"><g transform="matrix(1,0,0,1,0,0)"><svg width="395.52" viewBox="-4.849999904632568 -34.95000076293945 185.24000549316406 34.95000076293945" height="74.62037246963563" data-palette-color="url(#e0cdf43c-1582-4440-9b4b-8516a77c6de1)"><path d="M36.15-2.15L41.95-2.15 41.95 0 30.8 0 27.3-7.95 9.8-7.95 6.3 0-4.85 0-4.85-2.15 0.95-2.15 15.4-34.95 21.7-34.95 36.15-2.15ZM12.2-13.4L24.9-13.4 18.55-27.8 12.2-13.4ZM69.9-2.15L74.75-2.15 74.75 0 63.95 0 55.6-11.75 47.85-11.75 47.85 0 37.1 0 37.1-2.15 41.95-2.15 41.95-34.95 54.95-34.95Q62.95-34.95 66.4-32.25 69.85-29.55 69.85-23.6L69.85-23.6Q69.85-14.95 62.3-12.7L62.3-12.7 69.9-2.15ZM55.2-17.1Q60.2-17.1 62-18.65 63.8-20.2 63.8-23.63 63.8-27.05 61.95-28.33 60.1-29.6 55.35-29.6L55.35-29.6 47.85-29.6 47.85-17.1 55.2-17.1ZM72.84-2.15L85.44-2.15 85.44-13.8 72.44-34.95 78.89-34.95 88.44-19.05 98-34.95 104.44-34.95 91.44-13.8 91.44-2.15 104.05-2.15 104.05 0 72.84 0 72.84-2.15ZM137.64-2.15L143.44-2.15 143.44 0 132.29 0 128.79-7.95 111.29-7.95 107.79 0 96.64 0 96.64-2.15 102.44-2.15 116.89-34.95 123.19-34.95 137.64-2.15ZM113.69-13.4L126.39-13.4 120.04-27.8 113.69-13.4ZM138.59-2.15L143.44-2.15 143.44-34.95 149.34-34.95 169.64-8.85 169.64-34.95 175.54-34.95 175.54-2.15 180.39-2.15 180.39 0 169.14 0 149.34-25.5 149.34 0 138.59 0 138.59-2.15Z" opacity="1" transform="matrix(1,0,0,1,0,0)" fill="white" class="wordmark-text-0" id="SvgjsPath1255"></path></svg></g></svg></g></svg></g></svg></g><g transform="matrix(1,0,0,1,75.54432,0)"><svg viewBox="0 0 244.43135999999998 244.43135999999998" height="244.43135999999998" width="244.43135999999998"><g><svg viewBox="0 0 244.43135999999998 244.43135999999998" height="244.43135999999998" width="244.43135999999998"><g transform="matrix(1,0,0,1,64.60265593644992,64.60265593644992)"><svg viewBox="0 0 115.22604812710014 115.22604812710014" height="115.22604812710014" width="115.22604812710014"><g><svg xmlns="http://www.w3.org/2000/svg" xmlns:xlink="http://www.w3.org/1999/xlink" version="1.0" x="0" y="0" viewBox="1 1 48 48" enable-background="new 0 0 50 50" xml:space="preserve" height="115.22604812710014" width="115.22604812710014" class="icon-s-0" data-fill-palette-color="accent" id="SvgjsSvg1254"></svg></g></svg></g><g></g></svg></g></svg></g><g></g></svg></g><defs></defs></svg></g></mask><linearGradient x1="0" x2="1" y1="0.548" y2="0.55" id="e0cdf43c-1582-4440-9b4b-8516a77c6de1"><stop stop-color="#ff6cab" offset="0"></stop><stop stop-color="#7366ff" offset="1"></stop></linearGradient><rect width="269.27764892578125" height="247.1999969482422" fill="url(#e0cdf43c-1582-4440-9b4b-8516a77c6de1)" mask="url(#3fc4424e-44aa-494d-8e79-54f48ece891e)" data-fill-palette-color="primary"></rect><mask id="35962a92-9fdd-413d-8433-66dfcf24311f"><g id="SvgjsG1267"><svg viewBox="0 0 269.27765641541015 247.2" height="247.2" width="269.27765641541015"><g><svg viewBox="0 0 395.52 363.09193009748986" height="247.2" width="269.27765641541015"><g transform="matrix(1,0,0,1,0,288.4715576278542)"><svg viewBox="0 0 395.52 74.62037246963563" height="74.62037246963563" width="395.52"><g id="SvgjsG1266"><svg viewBox="0 0 395.52 74.62037246963563" height="74.62037246963563" width="395.52" id="SvgjsSvg1265"><g><svg viewBox="0 0 395.52 74.62037246963563" height="74.62037246963563" width="395.52"><g transform="matrix(1,0,0,1,0,0)"><svg width="395.52" viewBox="-4.849999904632568 -34.95000076293945 185.24000549316406 34.95000076293945" height="74.62037246963563" data-palette-color="url(#e0cdf43c-1582-4440-9b4b-8516a77c6de1)"></svg></g></svg></g></svg></g></svg></g><g transform="matrix(1,0,0,1,75.54432,0)"><svg viewBox="0 0 244.43135999999998 244.43135999999998" height="244.43135999999998" width="244.43135999999998"><g><svg viewBox="0 0 244.43135999999998 244.43135999999998" height="244.43135999999998" width="244.43135999999998"><g transform="matrix(1,0,0,1,64.60265593644992,64.60265593644992)"><svg viewBox="0 0 115.22604812710014 115.22604812710014" height="115.22604812710014" width="115.22604812710014"><g><svg xmlns="http://www.w3.org/2000/svg" xmlns:xlink="http://www.w3.org/1999/xlink" version="1.0" x="0" y="0" viewBox="1 1 48 48" enable-background="new 0 0 50 50" xml:space="preserve" height="115.22604812710014" width="115.22604812710014" class="icon-s-0" data-fill-palette-color="accent" id="SvgjsSvg1264"><g fill="white"><g fill="white"><rect x="1" y="1" fill="white" width="23" height="5"></rect><rect x="1" y="10" fill="white" width="23" height="5"></rect><rect x="1" y="19" fill="white" width="23" height="5"></rect></g><g fill="white"><rect x="26" y="26" fill="white" width="23" height="5"></rect><rect x="26" y="35" fill="white" width="23" height="5"></rect><rect x="26" y="44" fill="white" width="23" height="5"></rect></g><g fill="white"><rect x="19" y="26" fill="white" width="5" height="23"></rect><rect x="10" y="26" fill="white" width="5" height="23"></rect><rect x="1" y="26" fill="white" width="5" height="23"></rect></g><g fill="white"><rect x="44" y="1" fill="white" width="5" height="23"></rect><rect x="35" y="1" fill="white" width="5" height="23"></rect><rect x="26" y="1" fill="white" width="5" height="23"></rect></g></g></svg></g></svg></g><g><path d="M31.86 76.263l1.351-3.308 1.229 0.502-2.6 6.367-5.353 0.143-4.08 9.988 3.718 3.859-2.6 6.366-1.229-0.502 1.355-3.317-15.36-15.902 1.468-3.595zM19.852 87.316l2.963-7.254-9.707 0.272z" fill="white"></path><path d="M72.155 33.375l2.47-1.693 0.75 1.096-5.5 3.768-8.345-3.067-3.944 2.702 4.096 5.978-5.468 3.746-0.75-1.095 2.47-1.692-11.435-16.691 6.612-4.53c2.712-1.858 4.969-2.731 6.772-2.619 1.797 0.116 3.388 1.184 4.772 3.203v0c2.008 2.931 1.992 5.657-0.049 8.177v0zM59.465 30.889c1.696-1.162 2.669-2.215 2.917-3.16 0.252-0.939-0.021-1.99-0.818-3.154-0.797-1.164-1.656-1.745-2.575-1.745-0.928-0.001-2.197 0.549-3.805 1.651v0l-3.821 2.618 4.356 6.357z" fill="white"></path><path d="M110.701 20.548l7.775-0.127-0.117-7.186-8.237-12.913 3.982-0.065 6.048 9.715 5.728-9.907 3.982-0.065-7.811 13.175 0.117 7.186 7.775-0.127 0.022 1.327-19.242 0.314z" fill="white"></path><path d="M184.521 42.029l2.979 1.974-0.734 1.106-5.732-3.799 0.91-5.276-8.994-5.961-4.513 2.888-5.732-3.799 0.733-1.107 2.987 1.98 18.607-11.94 3.237 2.145zM176.04 28.085l6.531 4.329 1.638-9.572z" fill="white"></path><path d="M210.675 71.259l1.143 2.767 18.7-7.723 1.387 3.358-10.099 17.724 14.881-6.146 1.387 3.358-18.7 7.724 1.143 2.767-1.227 0.507-2.648-6.412 9.875-17.297-14.539 6.005-2.53-6.126z" fill="white"></path><path d="M14.361 175.321l1.355 3.317-1.229 0.502-2.601-6.366 3.718-3.859-4.081-9.988-5.356-0.152-2.6-6.366 1.228-0.502 1.356 3.317 22.1 0.6 1.469 3.594zM15.196 159.022l2.963 7.254 6.74-6.991z" fill="white"></path><path d="M61.47 226.656l2.47 1.692-0.75 1.096-5.501-3.769-0.153-8.889-3.944-2.702-4.096 5.978-5.467-3.746 0.75-1.095 2.47 1.692 11.436-16.691 6.612 4.53c2.717 1.862 4.347 3.651 4.887 5.37 0.541 1.718 0.122 3.584-1.258 5.598v0c-2.012 2.937-4.561 3.909-7.648 2.916v0zM59.206 213.925c1.696 1.162 3.03 1.688 4 1.579 0.967-0.104 1.849-0.738 2.646-1.902 0.797-1.164 1.032-2.177 0.703-3.039-0.338-0.861-1.311-1.842-2.92-2.944v0l-3.821-2.618-4.355 6.357z" fill="white"></path><path d="M110.392 242.79l7.774 0.127 0.118-7.186-7.811-13.175 3.982 0.065 5.728 9.907 6.048-9.715 3.982 0.065-8.227 12.914-0.117 7.185 7.764 0.127-0.021 1.327-19.242-0.314z" fill="white"></path><path d="M194.963 218.165l2.986-1.979 0.734 1.106-5.733 3.8-4.513-2.889-8.993 5.961 0.902 5.282-5.733 3.8-0.733-1.107 2.987-1.98-3.748-21.789 3.236-2.145zM178.817 220.544l6.531-4.328-8.178-5.238z" fill="white"></path><path d="M228.146 180.396l1.143-2.767-18.7-7.724 1.387-3.358 19.663-5.432-14.881-6.146 1.391-3.368 18.7 7.724 1.139-2.758 1.227 0.507-2.648 6.411-19.203 5.287 14.539 6.005-2.53 6.126z" fill="white"></path><path d="M2.769 122.218c0-4.549 3.687-8.236 8.235-8.236 4.549 0 8.236 3.687 8.236 8.236 0 4.549-3.687 8.236-8.236 8.236-4.549 0-8.236-3.687-8.235-8.236z" fill="white"></path><path d="M225.191 122.218c0-4.549 3.687-8.236 8.236-8.236 4.549 0 8.236 3.687 8.236 8.236 0 4.549-3.687 8.236-8.236 8.236-4.549 0-8.236-3.687-8.236-8.236z" fill="white"></path></g></svg></g></svg></g><g></g></svg></g><defs></defs><mask><g id="SvgjsG1263"><svg viewBox="0 0 269.27765641541015 247.2" height="247.2" width="269.27765641541015"><g><svg viewBox="0 0 395.52 363.09193009748986" height="247.2" width="269.27765641541015"><g transform="matrix(1,0,0,1,0,288.4715576278542)"><svg viewBox="0 0 395.52 74.62037246963563" height="74.62037246963563" width="395.52"><g id="SvgjsG1262"><svg viewBox="0 0 395.52 74.62037246963563" height="74.62037246963563" width="395.52" id="SvgjsSvg1261"><g><svg viewBox="0 0 395.52 74.62037246963563" height="74.62037246963563" width="395.52"><g transform="matrix(1,0,0,1,0,0)"><svg width="395.52" viewBox="-4.849999904632568 -34.95000076293945 185.24000549316406 34.95000076293945" height="74.62037246963563" data-palette-color="url(#e0cdf43c-1582-4440-9b4b-8516a77c6de1)"></svg></g></svg></g></svg></g></svg></g><g transform="matrix(1,0,0,1,75.54432,0)"><svg viewBox="0 0 244.43135999999998 244.43135999999998" height="244.43135999999998" width="244.43135999999998"><g><svg viewBox="0 0 244.43135999999998 244.43135999999998" height="244.43135999999998" width="244.43135999999998"><g transform="matrix(1,0,0,1,64.60265593644992,64.60265593644992)"><svg viewBox="0 0 115.22604812710014 115.22604812710014" height="115.22604812710014" width="115.22604812710014"><g><svg xmlns="http://www.w3.org/2000/svg" xmlns:xlink="http://www.w3.org/1999/xlink" version="1.0" x="0" y="0" viewBox="1 1 48 48" enable-background="new 0 0 50 50" xml:space="preserve" height="115.22604812710014" width="115.22604812710014" class="icon-s-0" data-fill-palette-color="accent" id="SvgjsSvg1259"></svg></g></svg></g><g></g></svg></g></svg></g><g></g></svg></g><defs></defs></svg></g></mask></svg></g></mask><linearGradient x1="0.054" x2="0.941" y1="0.5" y2="0.5" id="9621c76b-46ca-4198-8bb2-ff435774856a"><stop stop-color="#eaa79c" offset="0"></stop><stop stop-color="#f2e8cb" offset="0.498"></stop><stop stop-color="#eaa79c" offset="1"></stop></linearGradient><rect width="269.27764892578125" height="247.1999969482422" fill="url(#9621c76b-46ca-4198-8bb2-ff435774856a)" mask="url(#35962a92-9fdd-413d-8433-66dfcf24311f)" data-fill-palette-color="accent"></rect></svg><rect width="269.27765641541015" height="247.2" fill="none" stroke="none" visibility="hidden"></rect></g></svg></g></svg>