<!-- <?xml version="1.0" encoding="UTF-8" standalone="no"?>
<svg
   width="308.7612359841165"
   height="304.915625"
   viewBox="0 0 106.00782394174519 104.68749999999999"
   class="css-1j8o68f"
   version="1.1"
   id="svg23"
   sodipodi:docname="logo.svg"
   xmlns:inkscape="http://www.inkscape.org/namespaces/inkscape"
   xmlns:sodipodi="http://sodipodi.sourceforge.net/DTD/sodipodi-0.dtd"
   xmlns="http://www.w3.org/2000/svg"
   xmlns:svg="http://www.w3.org/2000/svg">
  <sodipodi:namedview
     id="namedview25"
     pagecolor="#ffffff"
     bordercolor="#000000"
     borderopacity="0.25"
     inkscape:showpageshadow="2"
     inkscape:pageopacity="0.0"
     inkscape:pagecheckerboard="0"
     inkscape:deskcolor="#d1d1d1" />
  <defs
     id="SvgjsDefs2684" />
  <g
     id="SvgjsG2685"
     featurekey="rootContainer"
     transform="matrix(0.9820592540669653,0,0,0.9820592540669653,-0.054560523427421584,0)"
     fill="#ff4a3f">
    <g
       id="g17">
      <path
         d="M19.8 15.3h.5l-.4-.2zm.5.1zm.8-.7c0 .1 0 .1.1.1l.4-.3c-.2-.1-.3-.1-.5.2zm.4-.2zm-4.1 2.3zm-.2.6l.3-.2c.1-.1.1-.2.1-.2h-.2l-.2.4c-.1-.1-.1 0 0 0zm2.2-2.9h-.1l-.2.2h.3zm-2.1 2.4l.6-.5c.1-.1.1-.2.1-.3h-.3l-1.2 1.1-.2.4.7-.6zm-1.1.8z"
         id="path3" />
      <path
         d="M9.7 25v-.2a1.7 1.7 0 0 1 .7-1.1l.9-.6.5-.6.7-.7.4-.4.4-.3a1.9 1.9 0 0 0 .8-.9l.4-.5a5.9 5.9 0 0 0 1-1.3l.2-.3.3-.2-.2-.3.4-.5c.8-.6 1.4-1.4 2.2-2l.3-.3a1.4 1.4 0 0 1 .5-.6l.8-.4h.4a1.4 1.4 0 0 0 .7-.6V13a3.5 3.5 0 0 1 1.3-1.4l.8-.5.2-.2.4-.4 1-.5h.2l-1.1.4-1.4 1c-.6.5-1.4.6-1.8 1.4h.3c-.7.2-1.4.5-1.7 1.2s-.8.6-1.2.9a.4.4 0 0 0-.3.4c-.8-.1-1.1.5-1.5.9v.8a3.9 3.9 0 0 0-1.6 1.4c-1.6.1-1.6 2.1-3 2.5h-.1a.2.2 0 0 0 0 .2c-.3 0-.5.2-.4.5l-.2.5c-.7.4-.6 1.1-1 1.7-.8.5-1.1 1.5-1.7 2.2l.3.5.2-.2a11.6 11.6 0 0 1 .9-1.3zM53.9 3.3l.6.2h.2a2.2 2.2 0 0 0 1.4.2 4.1 4.1 0 0 1 1.9.1h1.2a1.4 1.4 0 0 1 1.2.3.1.1 0 0 1 0 .1H60a.1.1 0 0 0 0 .1h.7a1.8 1.8 0 0 1 1.3 0c.2 0 .1.1.2.2l.5.2h-.2c-.2-.4-.5-.4-.8-.4a9.7 9.7 0 0 0-4.3-.9h-.8A9.8 9.8 0 0 0 53 3h.2zm7.3 3.1zM50.3 4.7zm10.9 1.7h.2-.2zM19 14.7zm32.1-10zm17.6 2.2a.9.9 0 0 0 1 .2h.6a3.1 3.1 0 0 0-1.8-.7l-.7-.2.5.3zm-3.4-1.3c0 .1.1.2.2.3h.2l.5-.3a4.2 4.2 0 0 0-1.7-.6l.7.4zm7.4 2.7l.8.5c-.2-.3-.4-.5-.8-.5z"
         id="path5" />
      <path
         d="M99 76.1l.6-1.6.6-1.5c.2-.5.6-1.8.8-2.6a1.7 1.7 0 0 1 .3-.7h.1v-1.1c.5-.1.4-.6.5-.9l.8-4.7a12.7 12.7 0 0 0 0-6.2 1.9 1.9 0 0 0-.5-1.6v-4.3c-.3-.9.3-1.9-.4-2.7L101 45a.4.4 0 0 0 0-.2l-.2-.6a.5.5 0 0 1 0-.4h.1c.3 0 .3-.5.3-.9a3 3 0 0 0-.4-1.1l-.3-.4a1.1 1.1 0 0 1-.2-.7 6.7 6.7 0 0 0-.2-2v-.6c-.2-.7-.4-1.5-.6-2.2l-.2-.5a2.5 2.5 0 0 1-.4-1.1 2.5 2.5 0 0 0-.3-.8l-.6-1a.8.8 0 0 0-.6-.2h-.1V32h-.2v-.8H97V31a.4.4 0 0 0 0-.1v-.2c.1-.2.1-.3-.1-.5a1.8 1.8 0 0 1-.4-.6l-.2-.6a2.9 2.9 0 0 0-.7-1.2 2.2 2.2 0 0 1-.5-.7l-.7-1.6a4.3 4.3 0 0 0-.6-1l-.6-.8a2.4 2.4 0 0 1-.4-.8l-.2-.3a.6.6 0 0 1-.1-.5.5.5 0 0 0-.2-.4l-.4-.3v.2c.1.2 0 .3-.1.3h-.2l.3 1 .3.5.7.9h-.1l-.2-.2-.2-.2a1.3 1.3 0 0 0-1.2-1.1v-.7c-.3-1.2-1.6-1.3-2.2-2.1a1.5 1.5 0 0 0-1.1-.9l-.8-.9a11.3 11.3 0 0 0-3.1-3l-.8-.6-.4-.3c-.7-.7-1-1.8-2.2-1.8l-.8-.5-.9-.7a2.2 2.2 0 0 0-1.8-1.3 5.1 5.1 0 0 0-2.3-1.2l.2.2.5.4 1.3.7a8.5 8.5 0 0 1 2.1 1.6 6.8 6.8 0 0 0 1.5 1.1l.6.5c.1.1.2.2.1.3H81l-.9-.3a5.6 5.6 0 0 1-2-.8l-1.2-.6-1.3-.7h-.2c-.3-.1-.4-.4-.8-.5l-.8-.2-2.5-.5a2.6 2.6 0 0 1-.9-.7 1.7 1.7 0 0 1-.9-.3l-1-.4a18.1 18.1 0 0 1-2.8-.8l-.6-.2-1-.3h-.5l-.2-.3v-.1h-1.6l-.6-.5-.4.2-.4.2h-.2l-.9-.5c-.6.6-1.1-.2-1.6-.1l-1-.3a1.2 1.2 0 0 1-1.2 0h-1.2a.6.6 0 0 1-.5-.6l.3-.2h.6a.7.7 0 0 1 .1.3c0 .2.2.2.5.2h.2l-.4-.6a1.1 1.1 0 0 0-1-.2l-1 .3H53c.3.2.2.3.2.5h-1.6l-.4-.2-.8-.4h-.1l-.7-.2h-2.3l.4-.2.8-.2h.3l1.7-.3 1.1-.2.6-.2h-1.1a8.4 8.4 0 0 0-3.4 0h-1.3L43 3.6c-1.4.1-2.8 0-3.9 1.2-2.5-.4-4.7.7-6.9 1.8l-2.2.9a6.7 6.7 0 0 0-3.7 1.8h.3l.5-.3.8-.5 1.3-.6 1-.2a6 6 0 0 1 2-.9l.9-.3h.2c.1.2.5 0 .7 0h.2c.1 0 .1.1 0 .1l-.6.4 1-.3.8-.2-1.3.7-1.3.4a1 1 0 0 0-.6.5l-.3.5h.3l.4-.2a1.4 1.4 0 0 1 .9-.6l1.5-.5h.5a.1.1 0 0 1 .1.2c-.2.2-.6.3-.8.5h.2l-3.2.9-3.8 1.6a5.2 5.2 0 0 1-2.3 1.2 6.6 6.6 0 0 1-1.7 1.1l-.8.2a1.5 1.5 0 0 1-1.3.9l-.3.5a3.7 3.7 0 0 1-1.2 1.1h-.1v-.1l-.2.2-.2.2-1 .2h-.5l-.4.5c-.1.1-.1.2 0 .2h.1c-.6.6-1 1.4-1.8 1.7L15 19.9c-.6 1.2-1.8 1.6-2.6 2.6s-1.4 3.9-3.9 4.3l-.2-.3-.2.5a2.7 2.7 0 0 1-.4.8 16.9 16.9 0 0 0-1.2 2.1.8.8 0 0 0-.1.5 1.4 1.4 0 0 1-.2.8l-.5 1.1h.2c.3 0 .3.3.4.6l.8-1.1a2.2 2.2 0 0 1 .6-.7 2 2 0 0 0 .9-.9l.3-.3.4-.4.6-1.1h.2c.1.1.1.1.2 0l.2-.4h.5v.8l.5-.5a.5.5 0 0 0 0-.5.4.4 0 0 1 .1-.3 1.5 1.5 0 0 0 .3-.5 1.3 1.3 0 0 1 .8-.9l.3-.2.3-.3a2.4 2.4 0 0 0 .8-1l-.2-.3c0-.1.1-.3.2-.4h.5l.6-.8.6-.3h.2a48.8 48.8 0 0 0-5.5 7.2h-.1.1a48.4 48.4 0 0 0-5.3 11.2h-.5l-.5-.4c-.2-.2-.1-.7-.4-.9h.1c.3-.5-.1-1.2.3-1.7s.1-1.4-.9-1.2-1.5.5-1.3 1.5-1 1.8-1.1 2.9-.5.5-.3.9v3.9c.1.8-.5 1.8.8 2.1l1.3.9c.1.5-.5 1.6.9 1.3a49.2 49.2 0 0 0-.3 5c0 1.1.1 2.2.1 3.3v-.4c-.1-.4-.1-.8-.2-1.3l-.3.3v-.2h-.5c0 .5-.1.8-.4.9a.9.9 0 0 0-.1.5c0 .1.1.3.2.2s.4.2.7.4-.2.3-.4.2-.2.1-.2.3v.3l.5 1.5c0 .3-.1.6-.1.9a1.7 1.7 0 0 0 .2.8h-.3v-.3l-.7-.2v-.6a1.5 1.5 0 0 0 0-.5 14.6 14.6 0 0 1-.3-1.8 16.6 16.6 0 0 1-.2-3.5.9.9 0 0 1 .1-.5v.2a2.9 2.9 0 0 1 .1.5.8.8 0 0 0 .1.4c.1.2.2.4.4.4s.1-.1.1-.2a2.1 2.1 0 0 0-.1-.5 4.2 4.2 0 0 1-.3-1.3 1.5 1.5 0 0 0-.3-.7 1.6 1.6 0 0 1-.2-.9v-.8c0-.3.1-.6.1-.9a.5.5 0 0 0-.1-.4h-.1c-.8.4-.7.2-1 1.6V55c0 .7-.1 1.4 0 2.1a10.8 10.8 0 0 0 .2 2.3 1.8 1.8 0 0 1 0 .5 3.1 3.1 0 0 0 .1.9 5.9 5.9 0 0 1 .1 1.3 3.9 3.9 0 0 0 .2 1.7 1.2 1.2 0 0 1 0 .4 2.1 2.1 0 0 0 .1.8 4.9 4.9 0 0 1 .2.9 14 14 0 0 0 .5 2.2 5 5 0 0 1 .2 1 1.7 1.7 0 0 0 .3.7 2.9 2.9 0 0 1 .5 1.2 8.5 8.5 0 0 0 .3 1l.4 1.4a5.4 5.4 0 0 0 .6 1.5 8.5 8.5 0 0 1 .8 2.1l.2.5a2.1 2.1 0 0 1 .5 1 2.1 2.1 0 0 0 .4.8 1 1 0 0 1 .2.5c.1.3.2.4.4.3h.1v.9l.5 1 .5 1 1.1 1.2.4.4c.3.3.7.5.9 1l.4.3a.7.7 0 0 1 .3.5l.2.7a3.3 3.3 0 0 0 .6.9l.4.2h.3a.2.2 0 0 1 .1.3 2.5 2.5 0 0 0 0 .5.9.9 0 0 0 .4.5h.2c.4-.1.8.2 1.2.7h.1c0-.1.1-.1 0-.2v-.2c0-.1.1-.2.2-.1a.7.7 0 0 1 .3.6v.2a4.3 4.3 0 0 0 .4 1.2c.5.3.5.3.5.1s0-.2.2-.2h.4l.2.3.8.5c.7.8 1.8.7 2.6 1.2l1.7 1.7h.2a2.9 2.9 0 0 0 1.6 1.6 1.3 1.3 0 0 0 1 .6c0 .5.6.6 1.1.7a1.2 1.2 0 0 0 .8.4h.2a1.7 1.7 0 0 0 1.5.5l.9.8 2.4.9v.2c.5 1.1 1.7.7 2.5 1l1.1.4h.4c1.2.3 2.4.9 3.7.5a.7.7 0 0 0 0 .4c1.1.7 2.4 0 3.6.4a2.9 2.9 0 0 0 1.7.1h.1l.8.2h.3l.9.2h.3a.5.5 0 0 1 .5 0 7.9 7.9 0 0 0 1.5.4h.6a.7.7 0 0 1 .7 0h3.9a5 5 0 0 0 1.6-.1h1l.5-.2H60l.6-.2.5-.3h2.2v.6H62l-1.2.2c-.4.1-.7 0-1 .1a2.4 2.4 0 0 1-1 .2l-1.3.3h-.4a3.1 3.1 0 0 0-1.5.1h-1.8a1.1 1.1 0 0 1-.9 0h-4.5a1.3 1.3 0 0 0-1.1.3H47l-.3-.2v-.3h-1.2a4.1 4.1 0 0 0-1.3-.3h-2.5l-.7-.2-.5-.2-2.1-.4h-.5l-.5-.2-2.1-.7-1.4-.4h-2.2c-.1 0-.1.1-.1.2h.2c1.3.5 2.6.9 3.9 1.5h.3l.9.2 1.4.4h1.3l.6.2.7.3 1.7.3 1.1.2 1.1.2h.8l.8.2h3.1l1 .2h2.3l1-.2H56c.4 0 .6-.1.7-.3h1a1 1 0 0 0 .8-.3c-.1.1 0 .1.1.2h.4v-.2c0-.1 0-.1.2-.2s.6-.1.7.1h.4l.3-.2c.2 0 .2 0 .2.1h.7l.5-.2.8-.4c.1.3.4.4 1.3.2l1.3-.4h1.2c.9-.1 2 0 2.7-.7h.2l.4-.3 1.1-.3a6.1 6.1 0 0 0 2-.8l.4-.2h.1l.9-.6.4-.2.5-.2h.4c.4-.1.4-.1.5-.4s0-.1-.2-.1h-.1l.4-.5h.2c.3-.1.5-.2.7-.1h.2a1.3 1.3 0 0 0 .9-.9c.3-.4 1.1-.2 1.3-.8l4.3-3.1c1.1-.1 1.4-1.1 2.2-1.7s2.3-1.1 3-2.2l.9-.4h.1a1 1 0 0 0 1.2-.7v.4c.8-.4 1.8.3 2.6-.5s0-2.7 1-3.8l.7-.5a12.1 12.1 0 0 0 1.5-4.2l.2-.2c0-.3 0-.7.4-.9a.9.9 0 0 0 .2-1.2h-.2a.3.3 0 0 0 0-.3c.7 0 .8-.7 1.2-1V77a.5.5 0 0 1 0-.2 3.8 3.8 0 0 0 .1-.7zM5.9 32.2z"
         id="path7" />
      <path
         d="M26.4 9.3l-.3.2-.4.3.5-.2zm6.1-2h.1l.3-.2h-.4zm-2.6 1l-.1.1h.1v-.1zm-1.5 1.4zm1.3-.2zm-6.3 3.1zM9.2 26.2l-.4.4H9a.4.4 0 0 0 .2-.4zm3-3.5a2.1 2.1 0 0 0 .3-.6 1.5 1.5 0 0 0-.5.5c-.1.1-.1.2 0 .2zM11 24.2V24c-.2 0-.5.3-.8.3v.2c.3.3.4.2.8-.3zm3 66.2zM73.9 9.2h.1l-.5-.3zm-2.5-1.4c.5-.1.8.4 1.2.5h.1l-.3-.2-1-.5-1.1-.5.3.2zM52.8 3.1zm11.7 2h-.1l-1.2-.2h.5zm2 .7l1.3.4a3.3 3.3 0 0 0-1.3-.4zm-9 0a1 1 0 0 0 .2-.5h-.5l-.3.3.4.3zm9 1.6zM49.9 4.2zm2.9.7zM48.5 4zm13.8 2.1a.5.5 0 0 0 0 .1zm44.8 52.3h-.3V58h.3c.1 0 .2-.3.1-.4s-.1-.7-.3-.8a.3.3 0 0 1-.2-.3l.2-.4a.4.4 0 0 0 0-.2h-.2l-.2-.3c-.1.3-.2.6-.4.7a.5.5 0 0 0 0 .2c0 .1 0 .2-.1.2h-.1a1.1 1.1 0 0 1-.1.3 2.3 2.3 0 0 0-.4.9.4.4 0 0 0 .1.4h.1a1.7 1.7 0 0 0-.1.8v.4a1.8 1.8 0 0 1-.1.5h-.1l-.4.7v.6a1.5 1.5 0 0 1-.3 1.1h-.2l-.2-.2a.9.9 0 0 1-.1-.8 6.5 6.5 0 0 0 .1-1.7c0-.1-.1-.2-.1-.2a.5.5 0 0 0-.1.3v.6c0 .2-.1.6-.3.7s-.1.2-.1.3l-.2.6.3.5c-.2.2-.4.1-.5-.1v1h.3v.4a4.2 4.2 0 0 0-.3 1.4 3.3 3.3 0 0 0 0 .4 4 4 0 0 1-.2 1.3 2 2 0 0 0 0 .6l-.3.7a3.2 3.2 0 0 1-.3.7l-.3.6-.9 2.7c.3.9-.4 1.5-.8 2.1a2.7 2.7 0 0 1-.8 2.3v.4c0 .1.1.2.3.1l.4-.3.2-.4h.2c.1.1.2.1.4-.1h.2a.5.5 0 0 1 .1.6 2.9 2.9 0 0 0-.1.8c0 .1 0 .2.1.2h.2c.1.1.2 0 .3-.3l.2-.5h.3c.4-.1.4-.1.6-.6l.5-.9.3-.6.4-1a1.6 1.6 0 0 1 .3-1 .6.6 0 0 0 .1-.6c0-.2 0-.3.2-.6l.3-.4.5-1a4.7 4.7 0 0 1 .2-.9 3 3 0 0 0 .3-1.3 3.8 3.8 0 0 1 .3-.9v-.5c-.1-.2-.1-.2 0-.6s.1-.2.2-.2a.4.4 0 0 1 .1.3l.2-.5a2.3 2.3 0 0 0 .2-.9v-.3c0-.1 0-.3-.1-.3v.4c-.2 0-.3.2-.5.3a6.4 6.4 0 0 0 .1-.8l.4-.2a.7.7 0 0 0 .2-.6 1.4 1.4 0 0 1 0-.3 4.8 4.8 0 0 0 .2-1.4v-.2l.3-1h.1a.3.3 0 0 0 .1-.3h-.1a.9.9 0 0 1 .2-.8 1.5 1.5 0 0 0-.9-1zm-1.2 7.8zm-.2-9.9zm0 0zM9.1 30.8a.3.3 0 0 0 0-.2l-.2-.2-.2.2-.3.6c0 .3-.3.6-.3.9v.2h.1zm96.3 24.8h.1a1.7 1.7 0 0 0 .2-1.2.5.5 0 0 1 .2-.5h.1v-.2l-.2-.2h-.1c-.1.1-.2.3-.3.3s-.1.1-.1.3v.3a2.2 2.2 0 0 0 .1 1.2zM13.2 90.1c-.1 0 0 .2 0 .3l.8.8h.1c-.2-.3-.3-.6-.2-.7a.9.9 0 0 1-.5-.2zm.8.3zm92.3-35.7h.1a2 2 0 0 0 0-.6c-.3.1-.3.1-.3.6s.1.1.2 0z"
         id="path9" />
      <path
         d="M106.7 62a.6.6 0 0 0 .1-.5c0-.1-.1-.2-.1-.1h-.2v.2c0 .4.1.5.2.4zm.1-8.2h-.1v.6a1 1 0 0 0 .1-.6zM17.1 92.6h-.2v.2l.2.2h.2v-.2zm86.6-33.3c0-.1 0-.1-.1-.1zM9.9 86.5l.5.5-.4-.6z"
         id="path11" />
      <circle
         cx="10.5"
         cy="87.1"
         transform="rotate(-24.8 10.4 87.159)"
         id="circle13" />
      <path
         d="M9.7 30.1h-.1v.2-.2h.1zm83.2-6.6l-.2-.3h-.1zm-14.7 77.1zM5.9 32.2zm-.1.2a.3.3 0 0 0 .1-.2v.2zm1.9-4.9zM61.5 2.4zm42.8 58.2v.1-.1zM16.4 92.5h-.1c.1.1.2 0 .1-.1zm.2.7h.1l-.1-.1v.1zm73.9-71.3zm15.2 34.4zM14.6 91.7zm92.1-37zm-.8 11.4zM34.6 0z"
         id="path15" />
    </g>
  </g>
  <g
     id="SvgjsG2686"
     featurekey="nameFeature-0"
     transform="matrix(2.284354285447385,0,0,2.284354285447385,27.980055421585643,-5.609520280720151)"
     fill="#ffffff">
    <path
       d="M9.6 16.48 l-0.32 4.24 c-0.08 1.8 2.6 1.96 2.72 0.2 l0.24 -4.28 c0.12 -1.76 -2.56 -1.96 -2.64 -0.16 z M0.48 11 l0 0 c0.04 0 20.48 -0.32 20.56 -0.2 c1.28 1.12 0.96 27.8 0.12 28.56 c-0.4 0.32 -4.64 0.56 -9.2 0.6 c-0.84 -3.84 -0.2 -8.32 -0.2 -8.32 c0.24 -1.8 -2.44 -2.12 -2.64 -0.4 c0 0.04 -0.64 4.52 0.16 8.76 c-4.56 -0.04 -8.68 -0.24 -8.92 -0.64 c-0.8 -1.44 0 -28.28 0.12 -28.36 z"
       id="path20" />
  </g>
</svg> -->


<svg xmlns="http://www.w3.org/2000/svg" version="1.1" xmlns:xlink="http://www.w3.org/1999/xlink" xmlns:svgjs="http://svgjs.dev/svgjs" width="308.7612359841165" height="304.915625" viewBox="0 0 2000 1500"><rect width="2000" height="1500" fill="#28353b"></rect><g transform="matrix(0.75,0,0,0.75,250.77413498720307,62.05748987854247)"><svg viewBox="0 0 269 247" data-background-color="#28353b" preserveAspectRatio="xMidYMid meet" height="1836" width="2000" xmlns="http://www.w3.org/2000/svg" xmlns:xlink="http://www.w3.org/1999/xlink"><g id="tight-bounds" transform="matrix(1,0,0,1,-0.13882820770507465,-0.09999999999999432)"><svg viewBox="0 0 269.27765641541015 247.2" height="247.2" width="269.27765641541015"><g><svg viewBox="0 0 395.52 363.09193009748986" height="247.2" width="269.27765641541015"><g transform="matrix(1,0,0,1,0,288.4715576278542)"><svg viewBox="0 0 395.52 74.62037246963563" height="74.62037246963563" width="395.52"><g id="textblocktransform"><svg viewBox="0 0 395.52 74.62037246963563" height="74.62037246963563" width="395.52" id="textblock"><g><svg viewBox="0 0 395.52 74.62037246963563" height="74.62037246963563" width="395.52"><g transform="matrix(1,0,0,1,0,0)"><svg width="395.52" viewBox="-4.849999904632568 -34.95000076293945 185.24000549316406 34.95000076293945" height="74.62037246963563" data-palette-color="url(#e0cdf43c-1582-4440-9b4b-8516a77c6de1)"></svg></g></svg></g></svg></g></svg></g><g transform="matrix(1,0,0,1,75.54432,0)"><svg viewBox="0 0 244.43135999999998 244.43135999999998" height="244.43135999999998" width="244.43135999999998"><g><svg viewBox="0 0 244.43135999999998 244.43135999999998" height="244.43135999999998" width="244.43135999999998"><g transform="matrix(1,0,0,1,64.60265593644992,64.60265593644992)"><svg viewBox="0 0 115.22604812710014 115.22604812710014" height="115.22604812710014" width="115.22604812710014"><g><svg xmlns="http://www.w3.org/2000/svg" xmlns:xlink="http://www.w3.org/1999/xlink" version="1.0" x="0" y="0" viewBox="1 1 48 48" enable-background="new 0 0 50 50" xml:space="preserve" height="115.22604812710014" width="115.22604812710014" class="icon-s-0" data-fill-palette-color="accent" id="s-0"></svg></g></svg></g><g></g></svg></g></svg></g><g></g></svg></g><defs></defs><mask id="3fc4424e-44aa-494d-8e79-54f48ece891e"><g id="SvgjsG1258"><svg viewBox="0 0 269.27765641541015 247.2" height="247.2" width="269.27765641541015"><g><svg viewBox="0 0 395.52 363.09193009748986" height="247.2" width="269.27765641541015"><g transform="matrix(1,0,0,1,0,288.4715576278542)"><svg viewBox="0 0 395.52 74.62037246963563" height="74.62037246963563" width="395.52"><g id="SvgjsG1257"><svg viewBox="0 0 395.52 74.62037246963563" height="74.62037246963563" width="395.52" id="SvgjsSvg1256"><g><svg viewBox="0 0 395.52 74.62037246963563" height="74.62037246963563" width="395.52"><g transform="matrix(1,0,0,1,0,0)"><svg width="395.52" viewBox="-4.849999904632568 -34.95000076293945 185.24000549316406 34.95000076293945" height="74.62037246963563" data-palette-color="url(#e0cdf43c-1582-4440-9b4b-8516a77c6de1)"><path d="M36.15-2.15L41.95-2.15 41.95 0 30.8 0 27.3-7.95 9.8-7.95 6.3 0-4.85 0-4.85-2.15 0.95-2.15 15.4-34.95 21.7-34.95 36.15-2.15ZM12.2-13.4L24.9-13.4 18.55-27.8 12.2-13.4ZM69.9-2.15L74.75-2.15 74.75 0 63.95 0 55.6-11.75 47.85-11.75 47.85 0 37.1 0 37.1-2.15 41.95-2.15 41.95-34.95 54.95-34.95Q62.95-34.95 66.4-32.25 69.85-29.55 69.85-23.6L69.85-23.6Q69.85-14.95 62.3-12.7L62.3-12.7 69.9-2.15ZM55.2-17.1Q60.2-17.1 62-18.65 63.8-20.2 63.8-23.63 63.8-27.05 61.95-28.33 60.1-29.6 55.35-29.6L55.35-29.6 47.85-29.6 47.85-17.1 55.2-17.1ZM72.84-2.15L85.44-2.15 85.44-13.8 72.44-34.95 78.89-34.95 88.44-19.05 98-34.95 104.44-34.95 91.44-13.8 91.44-2.15 104.05-2.15 104.05 0 72.84 0 72.84-2.15ZM137.64-2.15L143.44-2.15 143.44 0 132.29 0 128.79-7.95 111.29-7.95 107.79 0 96.64 0 96.64-2.15 102.44-2.15 116.89-34.95 123.19-34.95 137.64-2.15ZM113.69-13.4L126.39-13.4 120.04-27.8 113.69-13.4ZM138.59-2.15L143.44-2.15 143.44-34.95 149.34-34.95 169.64-8.85 169.64-34.95 175.54-34.95 175.54-2.15 180.39-2.15 180.39 0 169.14 0 149.34-25.5 149.34 0 138.59 0 138.59-2.15Z" opacity="1" transform="matrix(1,0,0,1,0,0)" fill="white" class="wordmark-text-0" id="SvgjsPath1255"></path></svg></g></svg></g></svg></g></svg></g><g transform="matrix(1,0,0,1,75.54432,0)"><svg viewBox="0 0 244.43135999999998 244.43135999999998" height="244.43135999999998" width="244.43135999999998"><g><svg viewBox="0 0 244.43135999999998 244.43135999999998" height="244.43135999999998" width="244.43135999999998"><g transform="matrix(1,0,0,1,64.60265593644992,64.60265593644992)"><svg viewBox="0 0 115.22604812710014 115.22604812710014" height="115.22604812710014" width="115.22604812710014"><g><svg xmlns="http://www.w3.org/2000/svg" xmlns:xlink="http://www.w3.org/1999/xlink" version="1.0" x="0" y="0" viewBox="1 1 48 48" enable-background="new 0 0 50 50" xml:space="preserve" height="115.22604812710014" width="115.22604812710014" class="icon-s-0" data-fill-palette-color="accent" id="SvgjsSvg1254"></svg></g></svg></g><g></g></svg></g></svg></g><g></g></svg></g><defs></defs></svg></g></mask><linearGradient x1="0" x2="1" y1="0.548" y2="0.55" id="e0cdf43c-1582-4440-9b4b-8516a77c6de1"><stop stop-color="#ff6cab" offset="0"></stop><stop stop-color="#7366ff" offset="1"></stop></linearGradient><rect width="269.27764892578125" height="247.1999969482422" fill="url(#e0cdf43c-1582-4440-9b4b-8516a77c6de1)" mask="url(#3fc4424e-44aa-494d-8e79-54f48ece891e)" data-fill-palette-color="primary"></rect><mask id="35962a92-9fdd-413d-8433-66dfcf24311f"><g id="SvgjsG1267"><svg viewBox="0 0 269.27765641541015 247.2" height="247.2" width="269.27765641541015"><g><svg viewBox="0 0 395.52 363.09193009748986" height="247.2" width="269.27765641541015"><g transform="matrix(1,0,0,1,0,288.4715576278542)"><svg viewBox="0 0 395.52 74.62037246963563" height="74.62037246963563" width="395.52"><g id="SvgjsG1266"><svg viewBox="0 0 395.52 74.62037246963563" height="74.62037246963563" width="395.52" id="SvgjsSvg1265"><g><svg viewBox="0 0 395.52 74.62037246963563" height="74.62037246963563" width="395.52"><g transform="matrix(1,0,0,1,0,0)"><svg width="395.52" viewBox="-4.849999904632568 -34.95000076293945 185.24000549316406 34.95000076293945" height="74.62037246963563" data-palette-color="url(#e0cdf43c-1582-4440-9b4b-8516a77c6de1)"></svg></g></svg></g></svg></g></svg></g><g transform="matrix(1,0,0,1,75.54432,0)"><svg viewBox="0 0 244.43135999999998 244.43135999999998" height="244.43135999999998" width="244.43135999999998"><g><svg viewBox="0 0 244.43135999999998 244.43135999999998" height="244.43135999999998" width="244.43135999999998"><g transform="matrix(1,0,0,1,64.60265593644992,64.60265593644992)"><svg viewBox="0 0 115.22604812710014 115.22604812710014" height="115.22604812710014" width="115.22604812710014"><g><svg xmlns="http://www.w3.org/2000/svg" xmlns:xlink="http://www.w3.org/1999/xlink" version="1.0" x="0" y="0" viewBox="1 1 48 48" enable-background="new 0 0 50 50" xml:space="preserve" height="115.22604812710014" width="115.22604812710014" class="icon-s-0" data-fill-palette-color="accent" id="SvgjsSvg1264"><g fill="white"><g fill="white"><rect x="1" y="1" fill="white" width="23" height="5"></rect><rect x="1" y="10" fill="white" width="23" height="5"></rect><rect x="1" y="19" fill="white" width="23" height="5"></rect></g><g fill="white"><rect x="26" y="26" fill="white" width="23" height="5"></rect><rect x="26" y="35" fill="white" width="23" height="5"></rect><rect x="26" y="44" fill="white" width="23" height="5"></rect></g><g fill="white"><rect x="19" y="26" fill="white" width="5" height="23"></rect><rect x="10" y="26" fill="white" width="5" height="23"></rect><rect x="1" y="26" fill="white" width="5" height="23"></rect></g><g fill="white"><rect x="44" y="1" fill="white" width="5" height="23"></rect><rect x="35" y="1" fill="white" width="5" height="23"></rect><rect x="26" y="1" fill="white" width="5" height="23"></rect></g></g></svg></g></svg></g><g><path d="M31.86 76.263l1.351-3.308 1.229 0.502-2.6 6.367-5.353 0.143-4.08 9.988 3.718 3.859-2.6 6.366-1.229-0.502 1.355-3.317-15.36-15.902 1.468-3.595zM19.852 87.316l2.963-7.254-9.707 0.272z" fill="white"></path><path d="M72.155 33.375l2.47-1.693 0.75 1.096-5.5 3.768-8.345-3.067-3.944 2.702 4.096 5.978-5.468 3.746-0.75-1.095 2.47-1.692-11.435-16.691 6.612-4.53c2.712-1.858 4.969-2.731 6.772-2.619 1.797 0.116 3.388 1.184 4.772 3.203v0c2.008 2.931 1.992 5.657-0.049 8.177v0zM59.465 30.889c1.696-1.162 2.669-2.215 2.917-3.16 0.252-0.939-0.021-1.99-0.818-3.154-0.797-1.164-1.656-1.745-2.575-1.745-0.928-0.001-2.197 0.549-3.805 1.651v0l-3.821 2.618 4.356 6.357z" fill="white"></path><path d="M110.701 20.548l7.775-0.127-0.117-7.186-8.237-12.913 3.982-0.065 6.048 9.715 5.728-9.907 3.982-0.065-7.811 13.175 0.117 7.186 7.775-0.127 0.022 1.327-19.242 0.314z" fill="white"></path><path d="M184.521 42.029l2.979 1.974-0.734 1.106-5.732-3.799 0.91-5.276-8.994-5.961-4.513 2.888-5.732-3.799 0.733-1.107 2.987 1.98 18.607-11.94 3.237 2.145zM176.04 28.085l6.531 4.329 1.638-9.572z" fill="white"></path><path d="M210.675 71.259l1.143 2.767 18.7-7.723 1.387 3.358-10.099 17.724 14.881-6.146 1.387 3.358-18.7 7.724 1.143 2.767-1.227 0.507-2.648-6.412 9.875-17.297-14.539 6.005-2.53-6.126z" fill="white"></path><path d="M14.361 175.321l1.355 3.317-1.229 0.502-2.601-6.366 3.718-3.859-4.081-9.988-5.356-0.152-2.6-6.366 1.228-0.502 1.356 3.317 22.1 0.6 1.469 3.594zM15.196 159.022l2.963 7.254 6.74-6.991z" fill="white"></path><path d="M61.47 226.656l2.47 1.692-0.75 1.096-5.501-3.769-0.153-8.889-3.944-2.702-4.096 5.978-5.467-3.746 0.75-1.095 2.47 1.692 11.436-16.691 6.612 4.53c2.717 1.862 4.347 3.651 4.887 5.37 0.541 1.718 0.122 3.584-1.258 5.598v0c-2.012 2.937-4.561 3.909-7.648 2.916v0zM59.206 213.925c1.696 1.162 3.03 1.688 4 1.579 0.967-0.104 1.849-0.738 2.646-1.902 0.797-1.164 1.032-2.177 0.703-3.039-0.338-0.861-1.311-1.842-2.92-2.944v0l-3.821-2.618-4.355 6.357z" fill="white"></path><path d="M110.392 242.79l7.774 0.127 0.118-7.186-7.811-13.175 3.982 0.065 5.728 9.907 6.048-9.715 3.982 0.065-8.227 12.914-0.117 7.185 7.764 0.127-0.021 1.327-19.242-0.314z" fill="white"></path><path d="M194.963 218.165l2.986-1.979 0.734 1.106-5.733 3.8-4.513-2.889-8.993 5.961 0.902 5.282-5.733 3.8-0.733-1.107 2.987-1.98-3.748-21.789 3.236-2.145zM178.817 220.544l6.531-4.328-8.178-5.238z" fill="white"></path><path d="M228.146 180.396l1.143-2.767-18.7-7.724 1.387-3.358 19.663-5.432-14.881-6.146 1.391-3.368 18.7 7.724 1.139-2.758 1.227 0.507-2.648 6.411-19.203 5.287 14.539 6.005-2.53 6.126z" fill="white"></path><path d="M2.769 122.218c0-4.549 3.687-8.236 8.235-8.236 4.549 0 8.236 3.687 8.236 8.236 0 4.549-3.687 8.236-8.236 8.236-4.549 0-8.236-3.687-8.235-8.236z" fill="white"></path><path d="M225.191 122.218c0-4.549 3.687-8.236 8.236-8.236 4.549 0 8.236 3.687 8.236 8.236 0 4.549-3.687 8.236-8.236 8.236-4.549 0-8.236-3.687-8.236-8.236z" fill="white"></path></g></svg></g></svg></g><g></g></svg></g><defs></defs><mask><g id="SvgjsG1263"><svg viewBox="0 0 269.27765641541015 247.2" height="247.2" width="269.27765641541015"><g><svg viewBox="0 0 395.52 363.09193009748986" height="247.2" width="269.27765641541015"><g transform="matrix(1,0,0,1,0,288.4715576278542)"><svg viewBox="0 0 395.52 74.62037246963563" height="74.62037246963563" width="395.52"><g id="SvgjsG1262"><svg viewBox="0 0 395.52 74.62037246963563" height="74.62037246963563" width="395.52" id="SvgjsSvg1261"><g><svg viewBox="0 0 395.52 74.62037246963563" height="74.62037246963563" width="395.52"><g transform="matrix(1,0,0,1,0,0)"><svg width="395.52" viewBox="-4.849999904632568 -34.95000076293945 185.24000549316406 34.95000076293945" height="74.62037246963563" data-palette-color="url(#e0cdf43c-1582-4440-9b4b-8516a77c6de1)"></svg></g></svg></g></svg></g></svg></g><g transform="matrix(1,0,0,1,75.54432,0)"><svg viewBox="0 0 244.43135999999998 244.43135999999998" height="244.43135999999998" width="244.43135999999998"><g><svg viewBox="0 0 244.43135999999998 244.43135999999998" height="244.43135999999998" width="244.43135999999998"><g transform="matrix(1,0,0,1,64.60265593644992,64.60265593644992)"><svg viewBox="0 0 115.22604812710014 115.22604812710014" height="115.22604812710014" width="115.22604812710014"><g><svg xmlns="http://www.w3.org/2000/svg" xmlns:xlink="http://www.w3.org/1999/xlink" version="1.0" x="0" y="0" viewBox="1 1 48 48" enable-background="new 0 0 50 50" xml:space="preserve" height="115.22604812710014" width="115.22604812710014" class="icon-s-0" data-fill-palette-color="accent" id="SvgjsSvg1259"></svg></g></svg></g><g></g></svg></g></svg></g><g></g></svg></g><defs></defs></svg></g></mask></svg></g></mask><linearGradient x1="0.054" x2="0.941" y1="0.5" y2="0.5" id="9621c76b-46ca-4198-8bb2-ff435774856a"><stop stop-color="#eaa79c" offset="0"></stop><stop stop-color="#f2e8cb" offset="0.498"></stop><stop stop-color="#eaa79c" offset="1"></stop></linearGradient><rect width="269.27764892578125" height="247.1999969482422" fill="url(#9621c76b-46ca-4198-8bb2-ff435774856a)" mask="url(#35962a92-9fdd-413d-8433-66dfcf24311f)" data-fill-palette-color="accent"></rect></svg><rect width="269.27765641541015" height="247.2" fill="none" stroke="none" visibility="hidden"></rect></g></svg></g></svg>